<svg xmlns="http://www.w3.org/2000/svg" xmlns:xlink="http://www.w3.org/1999/xlink" viewBox="0 0 3947.16 1065.72"><defs><style>.a{fill:#144205;}.b{fill:#afafaf;}.c{fill:#553d3d;}.d{fill:url(#a);}</style><linearGradient id="a" x1="677" y1="-122.42" x2="677" y2="722.41" gradientUnits="userSpaceOnUse"><stop offset="0.2" stop-color="#f4830b"/><stop offset="1" stop-color="#fff"/></linearGradient></defs><title>Asset 4</title><path class="a" d="M2141.87,906.38V776.6h46.18q17.43,0,25.32,3.5T2226,792.54a43,43,0,0,1,4.75,20.45q0,14.6-7.2,24.12t-21.49,12A54,54,0,0,1,2213.82,860q4.62,5.94,12.49,21.07l13.27,25.32h-26.25l-15.86-28.24Q2189,863,2185.9,859.06a17.13,17.13,0,0,0-6.59-5.4q-3.49-1.45-11-1.46h-4.45v54.18Zm21.94-74.89h16.24q15.78,0,19.72-1.6a12.23,12.23,0,0,0,6.15-5.49,19.4,19.4,0,0,0,2.22-9.73q0-6.55-2.92-10.58A12.92,12.92,0,0,0,2197,799q-2.67-.45-16-.44h-17.13Z"/><path class="a" d="M2266.62,906.38V776.6h80.59v22h-58.64v28.77h54.56v21.86h-54.56v35.32h60.71v21.87Z"/><path class="a" d="M2377.51,864.15l21.35-2.48q1.93,12.84,7.82,18.86t15.91,6q10.59,0,16-5.36a17.13,17.13,0,0,0,5.38-12.52,13.4,13.4,0,0,0-2.26-7.84q-2.26-3.23-7.9-5.62-3.86-1.59-17.57-5.66-17.64-5.24-24.76-12.84-10-10.71-10-26.12a38.11,38.11,0,0,1,4.71-18.54,31.29,31.29,0,0,1,13.57-13.15q8.85-4.51,21.38-4.51,20.46,0,30.81,10.71t10.86,28.59l-21.95,1.15q-1.41-10-6-14.38t-13.9-4.38q-9.55,0-15,4.69a10.09,10.09,0,0,0-3.49,8.05,10.78,10.78,0,0,0,3.26,7.88q4.16,4.17,20.17,8.68t23.68,9.34a33.36,33.36,0,0,1,12,13.19q4.35,8.36,4.34,20.67a43.76,43.76,0,0,1-5.19,20.89A33.06,33.06,0,0,1,2446,903.94q-9.48,4.74-23.65,4.74-20.61,0-31.65-11.38T2377.51,864.15Z"/><path class="a" d="M2495.08,842.29q0-19.83,5-33.29a62.83,62.83,0,0,1,10.12-17.79,43.21,43.21,0,0,1,14.05-11.69,51.28,51.28,0,0,1,23.43-5.13q24,0,38.44,17.79t14.41,49.49q0,31.43-14.3,49.17t-38.26,17.75q-24.24,0-38.55-17.66T2495.08,842.29Zm22.61-.89q0,22.05,8.52,33.42t21.65,11.37q13.13,0,21.54-11.28t8.41-33.86q0-22.31-8.19-33.29a25.85,25.85,0,0,0-21.76-11q-13.58,0-21.87,11.11T2517.69,841.4Z"/><path class="a" d="M2632.88,906.38V776.6h46.18q17.43,0,25.32,3.5T2717,792.54a43,43,0,0,1,4.74,20.45q0,14.6-7.19,24.12t-21.5,12A53.77,53.77,0,0,1,2704.82,860q4.63,5.94,12.5,21.07l13.27,25.32h-26.25l-15.86-28.24Q2680,863,2676.91,859.06a17.08,17.08,0,0,0-6.6-5.4q-3.48-1.45-11-1.46h-4.45v54.18Zm21.94-74.89h16.24q15.78,0,19.72-1.6a12.27,12.27,0,0,0,6.15-5.49,19.4,19.4,0,0,0,2.22-9.73q0-6.55-2.93-10.58A12.87,12.87,0,0,0,2688,799q-2.67-.45-16-.44h-17.13Z"/><path class="a" d="M2782.09,906.38V798.56h-32.24v-22h86.36v22H2804V906.38Z"/><path class="a" d="M2860,864.15l21.35-2.48q1.92,12.84,7.82,18.86t15.9,6q10.6,0,16-5.36a17.12,17.12,0,0,0,5.37-12.52,13.33,13.33,0,0,0-2.26-7.84q-2.26-3.23-7.9-5.62-3.86-1.59-17.57-5.66-17.64-5.24-24.76-12.84-10-10.71-10-26.12a38.11,38.11,0,0,1,4.71-18.54,31.29,31.29,0,0,1,13.57-13.15q8.85-4.51,21.39-4.51,20.46,0,30.8,10.71t10.86,28.59l-21.94,1.15q-1.41-10-6-14.38t-13.9-4.38q-9.56,0-15,4.69a10.12,10.12,0,0,0-3.49,8.05,10.75,10.75,0,0,0,3.27,7.88q4.14,4.17,20.16,8.68t23.69,9.34a33.44,33.44,0,0,1,12,13.19q4.33,8.36,4.33,20.67a43.76,43.76,0,0,1-5.19,20.89,33.08,33.08,0,0,1-14.67,14.47q-9.49,4.74-23.65,4.74-20.61,0-31.66-11.38T2860,864.15Z"/><path class="a" d="M2981.34,881.5h20.83v17.8q0,10.8-1.56,17a26.43,26.43,0,0,1-5.89,11.19,29.8,29.8,0,0,1-11,7.79l-4.08-10.26c4.2-1.66,7.2-3.93,9-6.82s2.72-6.85,2.82-11.86h-10.08Z"/><path class="a" d="M3124.46,906.38,3085.62,776.6h23.79l27.51,96,26.61-96h23.28l-38.92,129.78Z"/><path class="a" d="M3299.93,906.38h-23.88l-9.49-29.48h-43.44l-9,29.48h-23.28L3233.2,776.6h23.21ZM3259.52,855l-15-48.15L3229.87,855Z"/><path class="a" d="M3377.31,858.66V836.8h47.29v51.7q-6.88,8-20,14a62.55,62.55,0,0,1-26.51,6.06q-17.05,0-29.73-8.54t-19-24.43a92,92,0,0,1-6.37-34.57q0-20.28,7.11-36a53.22,53.22,0,0,1,20.83-24.17q10.46-6.47,26-6.46,20.23,0,31.61,10.13t14.65,28l-21.8,4.87q-2.3-9.55-8.64-15.09t-15.82-5.53q-14.39,0-22.87,10.88T3345.58,840q0,23.12,8.6,34.66t22.53,11.55a32.4,32.4,0,0,0,13.83-3.23,45.67,45.67,0,0,0,11.9-7.83V858.66Z"/><path class="a" d="M3558,906.38h-23.87l-9.49-29.48h-43.44l-9,29.48H3449l42.33-129.78h23.21ZM3517.63,855l-15-48.15L3488,855Z"/><path class="a" d="M3584.56,906.38V776.6h32.84l19.72,88.53,19.5-88.53h32.91V906.38h-20.38V804.22l-21.58,102.16h-21.13l-21.5-102.16V906.38Z"/><path class="a" d="M3722.06,842.29q0-19.83,5-33.29a62.59,62.59,0,0,1,10.12-17.79,43.11,43.11,0,0,1,14-11.69,51.27,51.27,0,0,1,23.42-5.13q24,0,38.44,17.79t14.42,49.49q0,31.43-14.31,49.17t-38.25,17.75q-24.24,0-38.55-17.66T3722.06,842.29Zm22.61-.89q0,22.05,8.53,33.42t21.65,11.37q13.11,0,21.53-11.28t8.42-33.86q0-22.31-8.19-33.29a25.86,25.86,0,0,0-21.76-11q-13.57,0-21.87,11.11T3744.67,841.4Z"/><path class="a" d="M3860,906.38V776.6h21.35l44.48,86.67V776.6h20.39V906.38h-22l-43.81-84.63v84.63Z"/><path class="a" d="M2014.19,528.56l89.81-8.17-39.64,46.88-63.85,9.89q-55.77,191.39-155.41,276.13Q1744.77,938,1584.8,938q-104.19,0-156.46-23.23-51.57-22.37-91.56-72.68-39.65-49.9-39.64-99.36a152.07,152.07,0,0,1,21-77.85q21.06-35.25,62.8-61.93,41-26.24,97.88-37.85,28.41-6,78.23-9.25t112.61-4.51l96.82-2.59q36.48-.85,81-5.16l121.38-11.18q24.55-92.47,41.92-174.84T2040.15,197q5.61-4.72,25.61-28,29.11-33.11,37.54-33.12,6,0,14,8.61Q2104,280.83,2014.19,528.56Zm-63.84,76.13,5.26-20.65q-105.24,13.34-234.34,35.27-82.1,14.19-174.71,26.67Q1475,655,1435.36,664q-40,9-55.08,20.22-14.73,11.61-24.56,32.69a298.94,298.94,0,0,0,110.86,41.29,692.16,692.16,0,0,0,118.22,10.32q27.36,0,59.81-2.15t62.62-6.88q30.18-4.74,47-8.61Q1830,733.72,1870,706.19q38.23-25.8,55.08-46Q1941.57,641.25,1950.35,604.69Zm-21.4-477q38.94,7.74,59.63,30.54a674.44,674.44,0,0,0,17.19,92.47,229.18,229.18,0,0,1-38.59,65.81q-63.84-75.7-117.87-79.57Q1901.93,158.68,1929,127.7Z"/><path class="a" d="M2142.59,422.75v-52.9q46.3-10.32,113-34.84l1.4,68.39q36.5-45.58,54-68.39,93,21.09,104.89,70.54A834.16,834.16,0,0,1,2469.2,335q44.19,1.73,75.77,18.93,30.87,16.77,42.45,43T2599,469.64q0,35.7-4.21,89.46-2.82,37.85-2.81,52.47,0,10.75,1.75,44.3-41.74,46.89-116.12,96.77,4.21-33.12,7-111.39l.7-9.9q1.76-39.55,1.76-61.93,0-59.77-9.83-88.17-10.17-29.25-33-55.49-14.73,45.6-18.6,54.63,1.41,34.41,1.41,90.75,0,69.68-2.81,122.58-81.39,16.77-107.35,30.54.34-28.83.35-50.76,0-193.54-36.48-242.14l-22.45,49,4.56,218.49q-97.53,11.61-129.8,18.93Q2142.59,581,2142.59,422.75Z"/><path class="a" d="M2930.86,344.91l-18.94,39.56q26.31,9.9,42.8,41.72,16.83,32.26,16.84,79.57,0,45.6-14.39,84.73-14.73,38.71-31.22,56.35-16.83,18.49-57.88,43.44-7.37,4.31-20.7,15.91a132.65,132.65,0,0,1-17.54,14.2q-68.41-.43-124.54-47.32-56.13-45.57-56.13-115.26,0-113.55,128.05-217.64,58.58,6.46,99.28,6.46Q2906.66,346.63,2930.86,344.91Zm-150.5,69.24q-18.59,38.3-18.59,79.14,0,111.4,93,135.91a421.66,421.66,0,0,0,8.77-84.3q0-66.22-25.61-95Q2812.64,421.47,2780.36,414.15Z"/><path class="a" d="M3033.65,360q41.38-3.43,126.64-34.41-4.56,14.19-9.82,58.92-3.15,26.68-8.42,60.22-5.27,34.85-5.26,61.93a167.22,167.22,0,0,0,8.77,54.2q9.12,28.81,24.56,65.37,32.63-31.82,46.65-54.62.34-12.47.35-48.17,0-120-8.77-175a118,118,0,0,0,25.26,3q43.86,0,101.39-11.19-3.16,66.24-3.16,161.72,0,55.49,3.16,186.67-20,4.31-78.23,18.49l-48.42,11.62q6.32-40.86,6.32-74.84-27,16.35-89.81,68.38-49.11-15.48-62.09-24.94-13.68-9-26.31-37.85-12.63-29.25-12.63-83.44Q3023.83,459.32,3033.65,360Z"/><path class="a" d="M3480.93,346.63l33.68-12.48V390.5q9.82-7.32,35.08-24.95,8.43-5.58,16.49-12L3596,331.57q32.63,5.6,49.82,13.77a69.9,69.9,0,0,1,27.36,24.51,100.19,100.19,0,0,1,14.38,32.26q3.51,14.63,3.51,48.6,0,40.44-6.31,95.48-6.68,58.5-7.37,100.65l-64.9,50.75-9.82,8.17q-28.08,23.65-46,32.26,20.34-119.13,20.35-186.66,0-81.3-29.12-142.8-1.05,1.72-12.63,15.48l-6.31,8.61-14.39,17.63,1.76,247.31q-57.2,2.14-118.93,20.65,0-22.38.35-29.68.71-26.67.7-31.83v-9.89q-1-18.06-1-25.38V520q0-77-2.1-138.07,4.54-1.71,10.52-4.08t13.51-5.38q7.53-3,16-6.88Z"/><path class="a" d="M3767.55,329.42l-.35-34.84q4.2-.85,33.32-4.3,49.47-6.45,73.67-10.75.34,6.89.35,14.62,0,13.77-2.45,45.59,11.22,1.29,44.55,1.29,22.8,0,30.52-1.29-9.47,69.69-12.28,82.15-23.51,4.31-64.9,6.46-2.45,63.64-2.45,86.88,0,37.41,14.38,59.78,14,21.93,48.76,34.41L3870,722.11q-114.7-38.72-114.71-145.38,0-17.62,4.91-68,4.91-52,5.61-70.11A193.57,193.57,0,0,0,3730,443.4l37.19-78.28v-8.6Z"/><path class="a" d="M943.64,887.65s17,12.12,45.72,13.69c0,0-13-9.7-16.56-19.25,0,0,19.26,17.68,47.52,20.82,0,0-32.37-15-47.4-55.6a62.07,62.07,0,0,0,16.19,13s-14-16.68-15.29-25.66c0,0,11,12.26,27.36,16.25,0,0-25-22.81-27.87-38.49,0,0,8.09,6.91,16.76,8.62,0,0-16.25-12.33-29.09-44a86.69,86.69,0,0,0,25.43,13.26S963.1,768,954,748.3c0,0,6.94,4.81,12.53,6,0,0-17.34-17.1-19.27-31.43,0,0,9.57,5.7,17.79,6.27,0,0-20.94-17.83-30.7-60-9.76,42.2-30.69,60-30.69,60,8.22-.57,17.78-6.27,17.78-6.27-1.92,14.33-19.26,31.43-19.26,31.43,5.59-1.17,12.52-6,12.52-6-9,19.67-32.36,42-32.36,42A86.69,86.69,0,0,0,907.81,777c-12.85,31.65-29.1,44-29.1,44,8.67-1.71,16.77-8.62,16.77-8.62-2.83,15.68-27.87,38.49-27.87,38.49,16.31-4,27.35-16.25,27.35-16.25-1.28,9-15.28,25.66-15.28,25.66a61.89,61.89,0,0,0,16.18-13c-15,40.63-47.39,55.6-47.39,55.6,28.25-3.14,47.52-20.82,47.52-20.82-3.6,9.55-16.57,19.25-16.57,19.25,28.77-1.57,45.73-13.69,45.73-13.69q1.22-.74,2.31-1.47c.6,9,.41,27-6.87,49l13.78.26h0l13.82-.27c-7.28-22.08-7.46-40-6.87-49C942.05,886.67,942.82,887.16,943.64,887.65Z"/><path class="a" d="M1047.4,875.91s11.75,8.4,31.7,9.49c0,0-9-6.72-11.49-13.34,0,0,13.36,12.25,32.94,14.42,0,0-22.43-10.37-32.85-38.54a42.89,42.89,0,0,0,11.22,9s-9.71-11.57-10.6-17.79c0,0,7.66,8.5,19,11.26,0,0-17.36-15.81-19.32-26.68,0,0,5.61,4.79,11.62,6,0,0-11.27-8.55-20.17-30.49a60,60,0,0,0,17.63,9.19s-16.16-15.46-22.44-29.1c0,0,4.81,3.33,8.68,4.15,0,0-12-11.86-13.35-21.79,0,0,6.63,4,12.33,4.35,0,0-14.51-12.36-21.28-41.62-6.77,29.26-21.28,41.62-21.28,41.62,5.7-.4,12.33-4.35,12.33-4.35-1.33,9.93-13.35,21.79-13.35,21.79,3.87-.82,8.68-4.15,8.68-4.15-6.28,13.64-22.44,29.1-22.44,29.1a60,60,0,0,0,17.63-9.19c-8.9,21.94-20.17,30.49-20.17,30.49,6-1.19,11.62-6,11.62-6-2,10.87-19.32,26.68-19.32,26.68,11.31-2.76,19-11.26,19-11.26-.89,6.22-10.6,17.79-10.6,17.79a42.89,42.89,0,0,0,11.22-9c-10.42,28.17-32.85,38.54-32.85,38.54,19.58-2.17,32.94-14.42,32.94-14.42-2.49,6.62-11.49,13.34-11.49,13.34,20-1.09,31.7-9.49,31.7-9.49.57-.34,1.1-.68,1.61-1a91.18,91.18,0,0,1-4.77,34l9.55.19h0l9.59-.19a91.18,91.18,0,0,1-4.77-34C1046.3,875.23,1046.84,875.57,1047.4,875.91Z"/><path class="a" d="M1124.16,887.36s9.1,6.51,24.55,7.35c0,0-7-5.21-8.89-10.34a49.24,49.24,0,0,0,25.52,11.18s-17.39-8-25.46-29.86a33.22,33.22,0,0,0,8.7,7s-7.52-9-8.21-13.78a32.39,32.39,0,0,0,14.69,8.73s-13.45-12.25-15-20.67c0,0,4.35,3.71,9,4.63,0,0-8.72-6.62-15.62-23.62a46.55,46.55,0,0,0,13.66,7.12s-12.52-12-17.38-22.55a23.3,23.3,0,0,0,6.72,3.22s-9.31-9.19-10.34-16.88c0,0,5.13,3.06,9.55,3.37,0,0-11.24-9.58-16.49-32.24-5.24,22.66-16.48,32.24-16.48,32.24,4.41-.31,9.55-3.37,9.55-3.37-1,7.69-10.34,16.88-10.34,16.88a23.3,23.3,0,0,0,6.72-3.22c-4.86,10.57-17.38,22.55-17.38,22.55a46.55,46.55,0,0,0,13.66-7.12c-6.9,17-15.63,23.62-15.63,23.62,4.66-.92,9-4.63,9-4.63-1.52,8.42-15,20.67-15,20.67a32.39,32.39,0,0,0,14.69-8.73c-.69,4.82-8.21,13.78-8.21,13.78a33,33,0,0,0,8.69-7c-8.07,21.82-25.45,29.86-25.45,29.86a49.24,49.24,0,0,0,25.52-11.18c-1.93,5.13-8.9,10.34-8.9,10.34,15.45-.84,24.56-7.35,24.56-7.35.44-.26.85-.53,1.24-.79a70.62,70.62,0,0,1-3.69,26.33l7.4.14h0l7.42-.15a70.62,70.62,0,0,1-3.69-26.33C1123.31,886.83,1123.72,887.1,1124.16,887.36Z"/><path class="a" d="M195.51,901.44s8,5.69,21.48,6.43c0,0-6.09-4.55-7.78-9a43.2,43.2,0,0,0,22.33,9.78s-15.21-7-22.27-26.13a29,29,0,0,0,7.6,6.1s-6.58-7.84-7.18-12.06a28.34,28.34,0,0,0,12.85,7.64s-11.76-10.72-13.09-18.09c0,0,3.8,3.25,7.87,4,0,0-7.63-5.79-13.67-20.66a40.9,40.9,0,0,0,11.95,6.23S204.65,845.2,200.4,836a20.34,20.34,0,0,0,5.88,2.81s-8.15-8-9.05-14.77c0,0,4.49,2.68,8.36,3,0,0-9.84-8.38-14.43-28.21C186.57,818.57,176.74,827,176.74,827c3.86-.27,8.36-3,8.36-3-.91,6.73-9.06,14.77-9.06,14.77a20.45,20.45,0,0,0,5.89-2.81c-4.26,9.24-15.21,19.73-15.21,19.73a40.9,40.9,0,0,0,11.95-6.23c-6,14.87-13.67,20.66-13.67,20.66,4.07-.8,7.88-4,7.88-4-1.33,7.37-13.1,18.09-13.1,18.09a28.34,28.34,0,0,0,12.85-7.64c-.6,4.22-7.18,12.06-7.18,12.06a29.12,29.12,0,0,0,7.61-6.1c-7.07,19.09-22.27,26.13-22.27,26.13a43.25,43.25,0,0,0,22.33-9.78c-1.69,4.49-7.79,9-7.79,9,13.52-.74,21.49-6.43,21.49-6.43.38-.23.74-.46,1.09-.69a61.8,61.8,0,0,1-3.23,23l6.47.13h0l6.5-.13a61.59,61.59,0,0,1-3.23-23C194.76,901,195.12,901.21,195.51,901.44Z"/><path class="a" d="M0,1006.08s111.43-142,364.23-75.67c232.55,61,261.31,92.82,548.86,92.82,0,0-152.1,49.18-369.27,1.51C350.44,982.29,226,885,0,1006.08Z"/><path class="a" d="M25.22,1010.87s149.83-81.22,315.3-24.72,240.63,66.34,288.05,70.37c0,0-94.43,32.8-256.27-25.47C224.49,977.83,101.9,985.65,25.22,1010.87Z"/><path class="a" d="M1275.09,992.78s-81.42-123.7-292.61-86.68c-194.29,34.07-220,58.09-455,38.5,0,0,121,50.57,301.79,26.39C990.22,949.46,1098.58,878.4,1275.09,992.78Z"/><path class="a" d="M1254.15,995s-117-76.61-256.09-41.69S796.82,991.13,757.78,991.2c0,0,75,33.25,211.24-3.37C1093.49,954.39,1193.18,969.14,1254.15,995Z"/><path class="b" d="M623.52,740.73l80.21,94.84L826.5,738.05,776.31,615.7l34.62,30.79,6.92-38.28-27.7-26.64L804,552.44l-37.21-39.12,3.46-45.78,16.44,21.64,1.73-45.78L881.9,580.74,861.12,525s102.77,48.12,191.05,162.15l-39.68-86.67L1230,814a381.7,381.7,0,0,1,52.34,10.83l-276-277.42L991,584.9s-64.11-65.77-139.35-87.4l-72.83-118L682,495l-18.6-13.57L537.44,610.57l-63-52.58-7,14.43L397,493.31l-99.3,85.76-26.83-25-162,173,75-12.33L248,723l82.26-43.28,69.61,5.93-19.91-44.94,43.28-.84-47.6-49.1,25.09-3.33-6.05-35.79L450,612.37l13-15,49,37.27L437.64,709l38.83,15,37.83,18.87,94.1-98-51.47,112Z"/><path class="c" d="M378.45,782.79,261.76,902.55l.66.11q9.79.6,20,1.65L388.06,794.42Z"/><path class="c" d="M727.57,933.59,616.47,783.45l-82.42,23L506.56,774.7l-88.18-41.37-28.71,29.46-9.62-2.73L281.9,870.12l99-98.21L462.49,868l-50.25,64.33c21.33,5.9,40.83,11.48,59,16.74L612.63,796.6ZM400,764.17l18.38-19.61,30.09,42.25Z"/><path class="c" d="M601.27,819.78l96.19,120.43c8.25-.25,16.17-.62,23.87-1.09l-108.72-132Z"/><rect class="c" x="367.17" y="851.25" width="12.34" height="12.34" transform="translate(-500.5 1190.52) rotate(-87.34)"/><rect class="c" x="384.33" y="852.05" width="12.34" height="12.34" transform="matrix(0.05, -1, 1, 0.05, -484.94, 1208.42)"/><rect class="c" x="366.38" y="868.24" width="12.34" height="12.34" transform="translate(-518.23 1205.93) rotate(-87.34)"/><rect class="c" x="383.54" y="869.04" width="12.34" height="12.34" transform="translate(-502.67 1223.84) rotate(-87.34)"/><rect class="c" x="580.78" y="861.19" width="12.34" height="12.34" transform="translate(-306.74 1413.37) rotate(-87.34)"/><rect class="c" x="597.94" y="861.98" width="12.34" height="12.34" transform="translate(-291.18 1431.27) rotate(-87.34)"/><rect class="c" x="579.98" y="878.18" width="12.34" height="12.34" transform="matrix(0.05, -1, 1, 0.05, -324.47, 1428.79)"/><rect class="c" x="597.15" y="878.98" width="12.34" height="12.34" transform="translate(-308.9 1446.69) rotate(-87.34)"/><path class="d" d="M1021.8,457.72l176.91-3.24q-3-21.63-7.65-42.68l-302.44-5.54,299.86-5.49a523.21,523.21,0,0,0-37.18-103.29l-174.9-3.21,171.74-3.14a526.56,526.56,0,0,0-37.59-63.5l-327.87-6,319.43-5.85a529.12,529.12,0,0,0-166-147.68L615.2,62.22,915,56.73A524.42,524.42,0,0,0,677,0C529.23,0,395.71,60.88,300.07,158.88l451.08,8.27-466.8,8.55a529.22,529.22,0,0,0-47.45,61.63l299.35,5.49-306.46,5.61Q217.52,268.11,207,288.91l457.94,8.39-466.13,8.54q-8,17.36-14.81,35.38l246.36,4.51L180.63,350.3q-5.91,16.6-10.73,33.7L559,391.13l-392.84,7.2A529.81,529.81,0,0,0,159.92,627L270.86,508.53l26.83,25L397,447.74l70.4,79.1,7-14.42,63,52.58L663.37,435.87,682,449.44,778.77,334l72.83,118C926.84,473.56,991,539.33,991,539.33l15.37-37.5L1181.57,678a526.88,526.88,0,0,0,22.09-151.29,533.25,533.25,0,0,0-4.07-65.68Z"/><path class="a" d="M128.92,887.65s17,12.12,45.73,13.69c0,0-13-9.7-16.57-19.25,0,0,19.26,17.68,47.52,20.82,0,0-32.37-15-47.39-55.6a61.89,61.89,0,0,0,16.18,13s-14-16.68-15.28-25.66c0,0,11,12.26,27.35,16.25,0,0-25-22.81-27.87-38.49,0,0,8.09,6.91,16.76,8.62,0,0-16.24-12.33-29.09-44a86.69,86.69,0,0,0,25.43,13.26s-23.31-22.31-32.36-42c0,0,6.93,4.81,12.52,6,0,0-17.34-17.1-19.27-31.43,0,0,9.57,5.7,17.79,6.27,0,0-20.93-17.83-30.7-60-9.76,42.2-30.69,60-30.69,60,8.22-.57,17.79-6.27,17.79-6.27-1.93,14.33-19.27,31.43-19.27,31.43,5.59-1.17,12.52-6,12.52-6-9,19.67-32.36,42-32.36,42A86.69,86.69,0,0,0,93.09,777C80.24,808.67,64,821,64,821c8.67-1.71,16.76-8.62,16.76-8.62-2.83,15.68-27.87,38.49-27.87,38.49,16.31-4,27.35-16.25,27.35-16.25C79,843.6,65,860.28,65,860.28a61.89,61.89,0,0,0,16.18-13c-15,40.63-47.39,55.6-47.39,55.6,28.26-3.14,47.52-20.82,47.52-20.82-3.59,9.55-16.57,19.25-16.57,19.25,28.77-1.57,45.73-13.69,45.73-13.69.81-.49,1.58-1,2.32-1.47.59,9,.41,27-6.87,49l13.77.26h0l13.82-.27c-7.28-22.08-7.46-40-6.87-49C127.34,886.67,128.11,887.16,128.92,887.65Z"/></svg>