<svg xmlns="http://www.w3.org/2000/svg" xmlns:xlink="http://www.w3.org/1999/xlink" viewBox="0 0 4561.16 1065.72"><defs><style>.a{fill:#144205;}.b{fill:#afafaf;}.c{fill:#553d3d;}.d{fill:url(#a);}</style><linearGradient id="a" x1="881.83" y1="1592.86" x2="881.83" y2="2437.69" gradientUnits="userSpaceOnUse"><stop offset="0.2" stop-color="#f4830b"/><stop offset="1" stop-color="#fff"/></linearGradient></defs><title>Fairmount</title><path class="a" d="M2299,2617.41V2514.28h43.83q16.53,0,24,2.78a23.74,23.74,0,0,1,12,9.88,29.74,29.74,0,0,1,4.5,16.25q0,11.61-6.83,19.17t-20.4,9.54a48.27,48.27,0,0,1,11.15,8.65q4.39,4.71,11.86,16.74l12.59,20.12h-24.9L2351.76,2595q-8-12-11-15.16a15.93,15.93,0,0,0-6.26-4.29c-2.21-.77-5.7-1.16-10.49-1.16h-4.22v43Zm20.82-59.51h15.41q15,0,18.71-1.27a11.21,11.21,0,0,0,5.84-4.36,13.39,13.39,0,0,0,2.11-7.74,12.4,12.4,0,0,0-2.78-8.41,12.73,12.73,0,0,0-7.84-4q-2.54-.36-15.2-.35h-16.25Z" transform="translate(-204.84 -1715.28)"/><path class="a" d="M2417.38,2617.41V2514.28h76.47v17.45h-55.64v22.86H2490V2572h-51.77V2600h57.61v17.37Z" transform="translate(-204.84 -1715.28)"/><path class="a" d="M2522.61,2583.86l20.26-2q1.83,10.2,7.42,15t15.09,4.78q10.07,0,15.16-4.25t5.1-10a9.38,9.38,0,0,0-2.14-6.22c-1.44-1.71-3.93-3.2-7.5-4.47q-3.66-1.26-16.67-4.5-16.74-4.15-23.5-10.2-9.49-8.52-9.49-20.76a26.54,26.54,0,0,1,4.46-14.73,27.92,27.92,0,0,1,12.88-10.45q8.4-3.59,20.29-3.59,19.43,0,29.23,8.51t10.31,22.73l-20.82.91q-1.35-8-5.74-11.43t-13.19-3.48q-9.08,0-14.21,3.73a7.5,7.5,0,0,0-3.3,6.4,7.93,7.93,0,0,0,3.09,6.26q3.94,3.3,19.14,6.89t22.47,7.42a28.9,28.9,0,0,1,11.4,10.49q4.11,6.65,4.11,16.42a30.42,30.42,0,0,1-4.92,16.61,29.51,29.51,0,0,1-13.93,11.5q-9,3.76-22.44,3.76-19.56,0-30-9T2522.61,2583.86Z" transform="translate(-204.84 -1715.28)"/><path class="a" d="M2634.17,2566.48q0-15.77,4.71-26.45a48.74,48.74,0,0,1,9.6-14.14,40.16,40.16,0,0,1,13.33-9.29,56.65,56.65,0,0,1,22.23-4.08q22.8,0,36.48,14.14T2734.2,2566q0,25-13.57,39.08t-36.3,14.1q-23,0-36.59-14T2634.17,2566.48Zm21.45-.7q0,17.5,8.09,26.55a27.81,27.81,0,0,0,41,.07q8-9,8-26.91,0-17.72-7.78-26.45t-20.64-8.72q-12.89,0-20.76,8.83T2655.62,2565.78Z" transform="translate(-204.84 -1715.28)"/><path class="a" d="M2764.93,2617.41V2514.28h43.83q16.53,0,24,2.78a23.74,23.74,0,0,1,12,9.88,29.74,29.74,0,0,1,4.5,16.25q0,11.61-6.83,19.17t-20.4,9.54a48.27,48.27,0,0,1,11.15,8.65q4.4,4.71,11.86,16.74l12.59,20.12h-24.9L2817.69,2595q-8-12-11-15.16a15.93,15.93,0,0,0-6.26-4.29c-2.21-.77-5.7-1.16-10.49-1.16h-4.22v43Zm20.82-59.51h15.41q15,0,18.71-1.27a11.21,11.21,0,0,0,5.84-4.36,13.39,13.39,0,0,0,2.11-7.74,12.35,12.35,0,0,0-2.78-8.41,12.73,12.73,0,0,0-7.84-4q-2.53-.36-15.2-.35h-16.25Z" transform="translate(-204.84 -1715.28)"/><path class="a" d="M2906.53,2617.41v-85.68h-30.6v-17.45h82v17.45h-30.53v85.68Z" transform="translate(-204.84 -1715.28)"/><path class="a" d="M2980.45,2583.86l20.26-2q1.83,10.2,7.42,15t15.09,4.78q10.07,0,15.16-4.25t5.1-10a9.38,9.38,0,0,0-2.14-6.22q-2.15-2.56-7.5-4.47-3.65-1.26-16.67-4.5-16.74-4.15-23.49-10.2-9.51-8.52-9.5-20.76a26.47,26.47,0,0,1,4.47-14.73,27.84,27.84,0,0,1,12.87-10.45q8.4-3.59,20.29-3.59,19.43,0,29.23,8.51t10.31,22.73l-20.82.91q-1.34-8-5.74-11.43t-13.19-3.48q-9.07,0-14.21,3.73a7.5,7.5,0,0,0-3.3,6.4,7.93,7.93,0,0,0,3.09,6.26q3.95,3.3,19.14,6.89t22.47,7.42a28.9,28.9,0,0,1,11.4,10.49q4.11,6.65,4.12,16.42a30.43,30.43,0,0,1-4.93,16.61,29.51,29.51,0,0,1-13.93,11.5q-9,3.76-22.44,3.76-19.56,0-30-9T2980.45,2583.86Z" transform="translate(-204.84 -1715.28)"/><path class="a" d="M3095.6,2597.64h19.76v14.14a49.56,49.56,0,0,1-1.47,13.55,20.21,20.21,0,0,1-5.6,8.89,28.86,28.86,0,0,1-10.44,6.2l-3.87-8.16q6-2,8.51-5.42t2.67-9.43h-9.56Z" transform="translate(-204.84 -1715.28)"/><path class="a" d="M3231.41,2617.41l-36.86-103.13h22.58l26.1,76.33,25.25-76.33h22.09l-36.93,103.13Z" transform="translate(-204.84 -1715.28)"/><path class="a" d="M3397.91,2617.41h-22.65l-9-23.42H3325l-8.51,23.42h-22.09l40.17-103.13h22Zm-38.34-40.8-14.21-38.27-13.93,38.27Z" transform="translate(-204.84 -1715.28)"/><path class="a" d="M3471.34,2579.49v-17.37h44.88v41.08q-6.54,6.33-19,11.15a69,69,0,0,1-25.15,4.82q-16.17,0-28.21-6.79a43.2,43.2,0,0,1-18.08-19.41,62.82,62.82,0,0,1-6.05-27.48q0-16.09,6.76-28.63a45.46,45.46,0,0,1,19.77-19.2q9.91-5.13,24.69-5.14,19.2,0,30,8.06t13.9,22.26l-20.69,3.87a21.81,21.81,0,0,0-8.19-12q-6-4.39-15-4.4-13.65,0-21.7,8.65t-8.06,25.68q0,18.36,8.16,27.54t21.39,9.18a35.72,35.72,0,0,0,13.12-2.57,44.9,44.9,0,0,0,11.29-6.22v-13.09Z" transform="translate(-204.84 -1715.28)"/><path class="a" d="M3642.84,2617.41h-22.66l-9-23.42H3570l-8.51,23.42h-22.09l40.17-103.13h22Zm-38.34-40.8-14.22-38.27-13.92,38.27Z" transform="translate(-204.84 -1715.28)"/><path class="a" d="M3668,2617.41V2514.28h31.16l18.71,70.35,18.5-70.35h31.24v103.13h-19.35v-81.18l-20.47,81.18h-20.05l-20.4-81.18v81.18Z" transform="translate(-204.84 -1715.28)"/><path class="a" d="M3798.49,2566.48q0-15.77,4.71-26.45a48.74,48.74,0,0,1,9.6-14.14,40.16,40.16,0,0,1,13.33-9.29,56.65,56.65,0,0,1,22.23-4.08q22.8,0,36.48,14.14t13.68,39.33q0,25-13.57,39.08t-36.3,14.1q-23,0-36.58-14T3798.49,2566.48Zm21.45-.7q0,17.5,8.09,26.55a27.81,27.81,0,0,0,41,.07q8-9,8-26.91,0-17.72-7.78-26.45t-20.64-8.72q-12.89,0-20.76,8.83T3819.94,2565.78Z" transform="translate(-204.84 -1715.28)"/><path class="a" d="M3929.39,2617.41V2514.28h20.26l42.21,68.87v-68.87h19.35v103.13h-20.9l-41.57-67.25v67.25Z" transform="translate(-204.84 -1715.28)"/><path class="a" d="M1611.22,1993.11q-12.87-13.26-12.87-25t7-17.54a86.69,86.69,0,0,1,18.71-11.31q11.7-5.44,25-10.53t28.85-9.36q15.6-4.28,26.52-7.41,31.18-8.57,39.77-8.57c5.71,0,8.58,1,8.58,3.12s-1.83,4.67-5.46,7.79-5.46,5-5.46,5.46.9.78,2.73.78A24.76,24.76,0,0,0,1752,1919q149.73-31.17,289.71-31.19t193.79,45.23q1.55,1.57,10.14,8.58,19.49,18.72,19.49,21,0,7-16.37,7-189.51,0-314.28,13.26-12.48,0-12.48,3.9c0,1.05,1.82,2.73,5.46,5.07s5.46,5.85,5.46,10.53-3.39,9.1-10.14,13.25l-99,91.24q-6.24,3.91-6.24,6.63c0,1.83,1.82,2.73,5.46,2.73l12.48-1.56q35.86-3.11,67.85-3.12,117,0,117,52.25c0,2.61-.39,4.29-1.17,5.07s-7.54,1.56-20.27,2.34-55.37,6.37-127.9,16.77-114.51,17.42-125.94,21-20.28,8.85-26.51,15.6q-100.6,131.81-113.08,163.77-.8,0-2.73,12.47c-1.29,8.31-2.46,12.48-3.51,12.48q-7,0-28.07-13.65T1550,2375.23a80.66,80.66,0,0,1,2.73-21.06q2.74-10.12,7-23t25.73-49.91a374.5,374.5,0,0,1,53.42-70.58c1,0,1.56-.9,1.56-2.73s-3.12-8.57-9.36-20.27-9.35-18.58-9.35-20.67q0-15.59,10.91-19.88t64.73-13.65l10.14-1.56h.78q6.23,0,24.17-17.94,120.87-107.61,141.93-118.53c5.19-2.6,7.8-4.68,7.8-6.24s-1.56-2.34-4.68-2.34a33.35,33.35,0,0,0-7.8.78q-132.59,18.72-222.25,18.71Q1624.08,2006.36,1611.22,1993.11Z" transform="translate(-204.84 -1715.28)"/><path class="a" d="M2085,2331.56l6.24-49.91q0-2.34-1.17-2.34c-.78,0-2.22,1.05-4.29,3.12q-10.14,10.92-25.74,26.9t-53.41,42.89q-37.85,26.91-61.22,26.91a88.64,88.64,0,0,1-9.75-2.73q-5.85-2-15.21-12.87t-9.36-31.19q0-20.28,30.81-62t73.69-81.88a493.6,493.6,0,0,1,95.53-69.8q52.65-29.62,91.63-29.63,14.8.78,23.4,21,7.79-7.78,14-7.79t14.81,9.35a18.79,18.79,0,0,1,9.36,5.07q4.68,4.3,4.68,12.09T2258.08,2146q-16.36,20.28-38.21,46t-31.19,37q-9.36,11.31-19.5,25.34-17.16,24.18-18.71,39,79.53-38.2,250.32-164.55,7,5.46,7,13.26a17,17,0,0,1-6.24,13.25q-6.24,5.47-15.2,13.26T2350.88,2199q-26.52,22.62-51.08,43.28t-56.14,46q-31.59,25.35-56.54,43.28-60.06,42.9-74.87,42.89t-21.05-9.36Q2084.95,2355.73,2085,2331.56Zm-79.54-32.76q9.35,0,57.31-38.21t90.85-76.42l43.68-38.21c2.07-2.08,3.12-3.51,3.12-4.29s-.78-1.17-2.34-1.17q-29.65,0-77.21,33.92t-82.27,71.75q-34.71,37.83-34.7,51.07A1.37,1.37,0,0,0,2005.42,2298.8Z" transform="translate(-204.84 -1715.28)"/><path class="a" d="M2336.85,2285.55q-6.26,10.92-6.24,19.49c0,5.73,3.12,8.58,9.36,8.58q5.45,0,18.71-4.68,145.82-76.41,285.42-180.14,7,5.46,7,13.26t-7.8,14.81q-7.8,7-22.22,20.28t-55,47.57q-40.56,34.32-75.65,62.39-92,74.08-135.69,87.34a113.64,113.64,0,0,1-30.41,3.9q-60.06,0-60-63.95,0-24.95,27.3-71.35t56.14-81.89q28.84-35.47,38.22-39.38a57.31,57.31,0,0,1,30.41-8.58,79.72,79.72,0,0,1,31.19,6.24q4.68,2.34,4.68,6.24t-7.41,11.7q-7.41,7.8-22.61,24.17T2377,2218.09Q2347,2258.26,2336.85,2285.55ZM2524,1978.29c5.19,0,8.58,1,10.14,3.12q10.91,13.27,10.91,21.45a21.77,21.77,0,0,1-4.68,14q-4.68,5.85-11.3,13.26t-26.52,20.28q-19.89,12.86-38.6,12.86-14-2.34-14-17.15,0-23.4,28.08-45.62T2524,1978.29Z" transform="translate(-204.84 -1715.28)"/><path class="a" d="M2513.08,2218.48q42.89-29.62,89.68-63.95-25-17.15-32-33.53c-1.56-3.63-2.34-6.24-2.34-7.8q0-15.59,10.14-20.66t32.75-5.07q8.58,0,50.69,21.05t53.42,21.06q11.3,0,31.58-6.63t32.37-6.63q12.07,0,17.54,5.46,19.48,25.74,19.5,31.19c0,3.65-1.7,6.63-5.07,9s-14,9.75-32,22.23-35.49,25.22-52.64,38.21a382.18,382.18,0,0,0-48.35,43.67q-22.63,24.18-22.62,39c0,1.56,1.29,2.34,3.9,2.34q42.11,0,283.86-170.78c3.63,0,5.46,3.25,5.46,9.75s-20.54,28.85-61.61,67.06-87.47,75.65-139.2,112.3-89.29,55-112.68,55q-54.6,0-54.59-54.59,0-29.62,19.88-57.32t83.84-74.47q-13.28,0-35.88-6.63t-28.85-16q-20.3,18-70.19,60-11.7,8.6-30.41,8.58t-18.72-5.85Q2500.6,2228.62,2513.08,2218.48Z" transform="translate(-204.84 -1715.28)"/><path class="a" d="M3154.1,2316q0,7,9,7t32.75-10.92q23.79-10.91,56.93-33.53t88.12-64.34q55-41.7,96.31-70.57,7,5.46,7,13.25t-7,14q-25,24.18-63.16,60.44t-116.59,97.09q-78.37,60.82-109.57,60.83-60.06,0-60-63.95,0-24.17,18.71-50.69l33.54-46q4.68-7,4.68-8.19t-4.68,2.73q-135.71,113.09-173.13,132.57-6.26,3.92-15.6,3.9-25.73,0-25.73-23.39a25.91,25.91,0,0,1,3.9-14q45.22-65.5,69.41-88.12l13.25-13.26a4.46,4.46,0,0,0,1.56-3.12,1.38,1.38,0,0,0-1.56-1.56c-1.05,0-2.61,1.05-4.68,3.12l-83.44,65.51q-72.53,56.92-79.15,60.44t-12.09,3.5q-5.46,0-17.16-6.62T2804,2326.88c0-1.56.78-3.63,2.33-6.24q76.42-84.22,111.52-138.81,14.8-23.4,26.13-41.72t17.93-26.13q6.62-7.79,14.43-7.8t17.55,9q9.74,9,9.74,18.33t-6.23,19.49q-26.52,47.58-41.34,61.61c-1.56,1.56-2.34,3-2.34,4.29s.52,2,1.56,2l2.34-.78,104.5-72.52q39.78-27.3,47.57-27.3t16.77,5.07q9,5.09,9,11.31a23.45,23.45,0,0,1-3.9,12.48l-50.69,69.4q-10.14,12.48-10.14,14c0,1.05.26,1.56.78,1.56l3.9-2.34q97.47-66.27,132.18-92t41.72-32.76q10.92-7.78,18.33-7.79c4.93,0,8.19.52,9.75,1.56l17.15,13.25c5.19,2.61,7.8,6,7.8,10.14a15.78,15.78,0,0,1-3.12,10.14q-46,49.92-73.69,79.54t-40.16,43.67q-20.3,24.18-25,39Q3154.09,2307.39,3154.1,2316Z" transform="translate(-204.84 -1715.28)"/><path class="a" d="M3523.74,2239.54q21.83,0,68.24-26.52t81.49-53l35.09-27.29q7,5.46,7,13.26t-7,14q-128.67,119.33-195,119.32a92.52,92.52,0,0,1-14-1.56q-88.12,102.16-151.28,102.16-42.12-6.26-53-29.64-6.24-11.68-6.24-29.63,0-51.46,59.27-122.82t148.94-104.89c5.2,0,9.09,1.17,11.7,3.51s4.94,3.64,7,3.9,4.8-.78,8.19-3.12,7.92-3.63,13.65-3.9,11.69,3,17.93,9.75q12.47,10.14,12.48,24.95Q3568.19,2171.7,3523.74,2239.54Zm-170,90.46q25,0,61.61-32.76t38.21-45.23q-9.36-7.78-19.88-28.46t-11.31-20.67a265,265,0,0,0-42.89,52.25q-29.66,49.92-29.63,68.63C3349.84,2327.93,3351.13,2330,3353.73,2330Zm168.45-191.06q-7.8,0-32.36,24.17t-24.57,33.54q0,2.34,4.68,9.35t7,7q13.25,0,30-32t16.77-37Q3523.74,2138.94,3522.18,2138.94Z" transform="translate(-204.84 -1715.28)"/><path class="a" d="M3770.94,2294.91q116.19-62.38,255.79-166.11,7,5.46,7,13.26t-7.79,14.81q-7.82,7-22.23,20.28t-55,47.57q-40.56,34.32-75.64,62.39-92,74.08-135.69,87.34a113.71,113.71,0,0,1-30.42,3.9q-26.52,0-26.51-41.33,0-8.58,7.41-25.74t8.57-19.88q1.17-2.73,1.95-4.29a25.5,25.5,0,0,1,1.56-2.73,4.78,4.78,0,0,0,.78-2.73q0-1.56-4.68-1.56-3.9,0-25.73,20.66t-36.26,33.15a229.73,229.73,0,0,1-32.76,23.39q-18.33,10.92-30,10.92-31.18,0-31.19-28.85,0-17.15,11.69-42.12,27.3-57.69,81.89-115.41t78-58.49a22.93,22.93,0,0,1,15.6,6.24q7,6.26,7,14t-15.6,23.39q-15.61,15.61-39.38,40.16t-33.54,40.95Q3636,2264.49,3636,2270c0,3.64,2.07,5.46,6.24,5.46s11.69-3.38,22.61-10.14q44.45-30.41,101.77-74.86t73.69-64.73q3.9-14,23.4-14,37.43,0,37.43,13.26,0,5.46-36.65,40.55-110,105.28-110,130.24c0,2.6,1.17,3.89,3.51,3.89S3764.7,2298,3770.94,2294.91Z" transform="translate(-204.84 -1715.28)"/><path class="a" d="M4050.89,2106.18q6.24,0,20.67,6.24t14.43,14a18.75,18.75,0,0,1-3.9,10.92l-58.49,81.1q-10.14,12.48-10.14,14c0,1.05.26,1.56.78,1.56l3.9-2.34q90.45-63.16,149-110.74,10.9-7.78,18.33-7.8c4.93,0,8.18.53,9.74,1.56L4217,2121c5.19,2.61,7.8,6,7.8,10.14a15.78,15.78,0,0,1-3.12,10.14q-14.82,16.36-33.92,37t-28.47,31.19q-9.36,10.53-21.05,23.79t-16.77,20.27q-5.09,7-11.31,16t-8.58,15.21q-4.68,17.94-4.68,31.19,0,7,9,7t32.76-10.92q23.77-10.91,56.92-33.53t88.13-64.34q55-41.7,96.31-70.57,7,5.46,7,13.25t-7,14q-25,24.18-63.17,60.44t-116.59,97.09q-78.37,60.82-109.56,60.83-60.06,0-60.05-63.95,0-24.17,18.71-50.69l33.54-46q4.68-7,4.68-8.19t-4.68,2.73q-135.69,113.09-173.13,132.57-6.24,3.92-15.59,3.9-25.74,0-25.74-23.39a26.08,26.08,0,0,1,3.9-14q57.71-53,81.1-86.56,18.72-18.72,39.39-52.25t35.09-55.37Q4042.31,2106.19,4050.89,2106.18Z" transform="translate(-204.84 -1715.28)"/><path class="a" d="M4596.77,2004l39.78-.78q77.21,0,112.29,21.83,17.15,5.46,17.16,14,0,6.26-15.21,8.58t-105.28,12.08q-90.06,9.76-123.6,11.31-14.82.79-68.24,51.47a1078.15,1078.15,0,0,0-101.76,111.52q-48.37,60.83-48.35,85c0,2.61,1.29,4.81,3.89,6.63a16.52,16.52,0,0,0,9.75,2.73q5.85,0,18.33-4.68a3246.53,3246.53,0,0,0,287.76-191.06q7,5.46,7,13.26t-7.8,15.2q-7.8,7.43-23,21.45T4543,2233.3q-41.36,36.66-78,65.5-98.25,79.54-137.25,92-14,3.89-33.14,3.89t-35.1-19.49q-16-19.49-16-53t43.28-96.7q43.28-63.16,118.14-129.45c4.68-3.63,7-7,7-10.14s-5.46-4.68-16.37-4.68l-49.13,1.56q-103.72,0-106.84-23.4-24.16-4.68-24.18-14a3.19,3.19,0,0,1,3.12-3.51c2.09-.26,3.9-.51,5.46-.78s4.17-.65,7.8-1.17,32.36-4.68,86.17-12.48,115-14.29,183.65-19.5l53.81-71.74q4.68-9.36,32.76-9.36t28.07,11.7q0,3.92-6.24,14l-19.49,27.29q-3.91,12.48-4.68,18.72Q4585.86,2004,4596.77,2004Z" transform="translate(-204.84 -1715.28)"/><path class="a" d="M1148.48,2602.93s17,12.12,45.72,13.69c0,0-13-9.7-16.57-19.25,0,0,19.27,17.68,47.53,20.82,0,0-32.37-15-47.4-55.6a61.85,61.85,0,0,0,16.19,13s-14-16.68-15.29-25.66c0,0,11,12.26,27.36,16.25,0,0-25-22.81-27.87-38.49,0,0,8.09,6.91,16.76,8.62,0,0-16.25-12.33-29.09-44a86.52,86.52,0,0,0,25.43,13.26s-23.31-22.31-32.37-42c0,0,6.94,4.82,12.52,6,0,0-17.33-17.11-19.26-31.43,0,0,9.57,5.7,17.79,6.27,0,0-20.94-17.83-30.7-60-9.76,42.2-30.7,60-30.7,60,8.22-.57,17.79-6.27,17.79-6.27-1.92,14.32-19.26,31.43-19.26,31.43,5.58-1.17,12.52-6,12.52-6-9.06,19.68-32.37,42-32.37,42a86.52,86.52,0,0,0,25.43-13.26c-12.84,31.65-29.09,44-29.09,44,8.67-1.71,16.76-8.62,16.76-8.62-2.82,15.68-27.87,38.49-27.87,38.49,16.31-4,27.36-16.25,27.36-16.25-1.28,9-15.28,25.66-15.28,25.66a61.89,61.89,0,0,0,16.18-13c-15,40.63-47.39,55.6-47.39,55.6,28.25-3.14,47.52-20.82,47.52-20.82-3.6,9.55-16.57,19.25-16.57,19.25,28.77-1.57,45.72-13.69,45.72-13.69.82-.49,1.59-1,2.32-1.47.6,9,.41,27-6.87,49l13.78.27h0l13.82-.28c-7.28-22.07-7.47-40-6.87-49C1146.89,2602,1147.66,2602.44,1148.48,2602.93Z" transform="translate(-204.84 -1715.28)"/><path class="a" d="M1252.24,2591.19s11.75,8.4,31.69,9.49c0,0-9-6.72-11.48-13.35,0,0,13.35,12.26,32.94,14.43,0,0-22.44-10.37-32.85-38.54a43,43,0,0,0,11.22,9s-9.71-11.56-10.6-17.78c0,0,7.66,8.49,19,11.26,0,0-17.36-15.81-19.32-26.68,0,0,5.61,4.79,11.62,6,0,0-11.26-8.55-20.16-30.49a60,60,0,0,0,17.63,9.19s-16.16-15.47-22.44-29.1c0,0,4.81,3.33,8.68,4.15,0,0-12-11.86-13.35-21.79,0,0,6.63,4,12.33,4.35,0,0-14.52-12.36-21.28-41.62-6.77,29.26-21.28,41.62-21.28,41.62,5.7-.4,12.33-4.35,12.33-4.35-1.34,9.93-13.35,21.79-13.35,21.79,3.87-.82,8.68-4.15,8.68-4.15-6.28,13.63-22.44,29.1-22.44,29.1a60.21,60.21,0,0,0,17.63-9.19c-8.9,21.94-20.17,30.49-20.17,30.49,6-1.19,11.62-6,11.62-6-2,10.87-19.32,26.68-19.32,26.68,11.31-2.77,19-11.26,19-11.26-.9,6.22-10.6,17.78-10.6,17.78a43,43,0,0,0,11.22-9c-10.42,28.17-32.85,38.54-32.85,38.54,19.58-2.17,32.94-14.43,32.94-14.43-2.5,6.63-11.49,13.35-11.49,13.35,20-1.09,31.7-9.49,31.7-9.49.56-.34,1.1-.68,1.61-1a91.2,91.2,0,0,1-4.77,34l9.55.18h0l9.58-.19a91.35,91.35,0,0,1-4.76-34C1251.14,2590.51,1251.67,2590.85,1252.24,2591.19Z" transform="translate(-204.84 -1715.28)"/><path class="a" d="M1329,2602.64s9.1,6.5,24.55,7.35c0,0-7-5.21-8.9-10.34a49.38,49.38,0,0,0,25.52,11.18s-17.38-8-25.45-29.86a33.26,33.26,0,0,0,8.69,7s-7.51-9-8.2-13.78a32.32,32.32,0,0,0,14.69,8.72s-13.45-12.24-15-20.67c0,0,4.34,3.72,9,4.64,0,0-8.72-6.63-15.62-23.62a46.58,46.58,0,0,0,13.65,7.12s-12.51-12-17.38-22.55a23.41,23.41,0,0,0,6.73,3.22s-9.31-9.19-10.35-16.88c0,0,5.14,3.06,9.56,3.37,0,0-11.25-9.58-16.49-32.24-5.24,22.66-16.48,32.24-16.48,32.24,4.41-.31,9.55-3.37,9.55-3.37-1,7.69-10.35,16.88-10.35,16.88a23.41,23.41,0,0,0,6.73-3.22c-4.86,10.57-17.38,22.55-17.38,22.55a46.41,46.41,0,0,0,13.65-7.12c-6.89,17-15.62,23.62-15.62,23.62,4.66-.92,9-4.64,9-4.64-1.51,8.43-15,20.67-15,20.67a32.32,32.32,0,0,0,14.69-8.72c-.69,4.82-8.21,13.78-8.21,13.78a33.26,33.26,0,0,0,8.69-7c-8.07,21.82-25.45,29.86-25.45,29.86a49.38,49.38,0,0,0,25.52-11.18c-1.93,5.13-8.9,10.34-8.9,10.34,15.45-.85,24.56-7.35,24.56-7.35.43-.27.85-.53,1.24-.8a70.64,70.64,0,0,1-3.69,26.34l7.4.14h0l7.42-.15a70.64,70.64,0,0,1-3.69-26.34C1328.15,2602.11,1328.56,2602.37,1329,2602.64Z" transform="translate(-204.84 -1715.28)"/><path class="a" d="M400.34,2616.72s8,5.69,21.49,6.43c0,0-6.1-4.56-7.79-9a43.26,43.26,0,0,0,22.34,9.78s-15.21-7-22.27-26.13a29,29,0,0,0,7.6,6.1s-6.58-7.84-7.18-12.06a28.34,28.34,0,0,0,12.85,7.64s-11.77-10.72-13.09-18.09c0,0,3.8,3.25,7.87,4.05,0,0-7.63-5.79-13.67-20.67a40.62,40.62,0,0,0,11.95,6.23s-10.95-10.48-15.21-19.72a20.45,20.45,0,0,0,5.89,2.81s-8.15-8-9.06-14.77c0,0,4.5,2.68,8.36,2.95,0,0-9.83-8.38-14.42-28.21-4.59,19.83-14.42,28.21-14.42,28.21,3.86-.27,8.35-2.95,8.35-2.95-.9,6.73-9.05,14.77-9.05,14.77a20.45,20.45,0,0,0,5.89-2.81c-4.26,9.24-15.21,19.72-15.21,19.72a40.62,40.62,0,0,0,11.95-6.23c-6,14.88-13.67,20.67-13.67,20.67,4.07-.8,7.87-4.05,7.87-4.05-1.33,7.37-13.09,18.09-13.09,18.09a28.34,28.34,0,0,0,12.85-7.64c-.6,4.22-7.18,12.06-7.18,12.06a29,29,0,0,0,7.6-6.1c-7.06,19.09-22.27,26.13-22.27,26.13a43.2,43.2,0,0,0,22.33-9.78c-1.69,4.48-7.78,9-7.78,9,13.52-.74,21.48-6.43,21.48-6.43.39-.23.75-.46,1.09-.69a61.76,61.76,0,0,1-3.22,23l6.47.12h0l6.49-.13a61.54,61.54,0,0,1-3.22-23Q399.77,2616.38,400.34,2616.72Z" transform="translate(-204.84 -1715.28)"/><path class="a" d="M204.84,2721.35s111.43-142,364.22-75.67c232.56,61.05,261.32,92.83,548.86,92.83,0,0-152.09,49.18-369.27,1.51C555.28,2697.57,430.84,2600.28,204.84,2721.35Z" transform="translate(-204.84 -1715.28)"/><path class="a" d="M230.06,2726.15s149.83-81.22,315.29-24.72,240.63,66.34,288,70.37c0,0-94.42,32.8-256.27-25.47C429.33,2693.1,306.74,2700.92,230.06,2726.15Z" transform="translate(-204.84 -1715.28)"/><path class="a" d="M1479.93,2708.06s-81.42-123.7-292.61-86.68c-194.29,34.06-220,58.09-455,38.5,0,0,121,50.57,301.8,26.39C1195.05,2664.74,1303.41,2593.68,1479.93,2708.06Z" transform="translate(-204.84 -1715.28)"/><path class="a" d="M1459,2710.26s-117-76.61-256.08-41.69-201.24,37.84-240.29,37.91c0,0,75,33.25,211.25-3.37C1298.33,2669.67,1398,2684.41,1459,2710.26Z" transform="translate(-204.84 -1715.28)"/><path class="b" d="M828.36,2456l80.21,94.84,122.77-97.51L981.14,2331l34.62,30.79,6.93-38.29L995,2296.85l13.85-29.13-37.22-39.12,3.47-45.78,16.44,21.64,1.73-45.78L1086.73,2296,1066,2240.25s102.76,48.12,191,162.15l-39.68-86.67,217.54,213.54a381.54,381.54,0,0,1,52.33,10.83l-276-277.42-15.37,37.5s-64.11-65.77-139.35-87.4l-72.83-118-96.8,115.48-18.61-13.57L742.27,2325.85l-63-52.58-7,14.42-70.4-79.11-99.3,85.77-26.83-25-162,173,75-12.33,64.11,8.14L535.05,2395l69.61,5.93L584.75,2356l43.27-.84-47.6-49.1,25.1-3.33-6.06-35.79,55.39,60.76,13-15,49,37.27-74.4,74.34,38.84,15,37.83,18.87,94.1-98-51.47,112Z" transform="translate(-204.84 -1715.28)"/><path class="c" d="M583.29,2498.07,466.6,2617.83l.65.11q9.79.58,20,1.65L592.9,2509.7Z" transform="translate(-204.84 -1715.28)"/><path class="c" d="M932.4,2648.87,821.31,2498.72l-82.42,23L711.4,2490l-88.18-41.36-28.72,29.46-9.61-2.73-98.15,110,99-98.21,81.56,96.11-50.25,64.33c21.33,5.9,40.83,11.48,59,16.73l141.38-152.47ZM604.86,2479.45l18.37-19.62,30.09,42.26Z" transform="translate(-204.84 -1715.28)"/><path class="c" d="M806.1,2535.06l96.2,120.43c8.25-.25,16.16-.63,23.86-1.1l-108.71-132Z" transform="translate(-204.84 -1715.28)"/><rect class="c" x="572" y="2566.53" width="12.34" height="12.34" transform="translate(-2223.45 1315.45) rotate(-87.34)"/><rect class="c" x="589.16" y="2567.33" width="12.34" height="12.34" transform="translate(-2207.88 1333.35) rotate(-87.34)"/><rect class="c" x="571.21" y="2583.52" width="12.34" height="12.34" transform="translate(-2241.18 1330.85) rotate(-87.34)"/><rect class="c" x="588.37" y="2584.32" width="12.34" height="12.34" transform="translate(-2225.61 1348.76) rotate(-87.34)"/><rect class="c" x="785.61" y="2576.46" width="12.34" height="12.34" transform="translate(-2029.69 1538.3) rotate(-87.34)"/><rect class="c" x="802.77" y="2577.26" width="12.34" height="12.34" transform="translate(-2014.13 1556.17) rotate(-87.34)"/><rect class="c" x="784.82" y="2593.46" width="12.34" height="12.34" transform="translate(-2047.41 1553.71) rotate(-87.34)"/><rect class="c" x="801.98" y="2594.26" width="12.34" height="12.34" transform="translate(-2031.85 1571.62) rotate(-87.34)"/><path class="d" d="M1226.64,2173l176.91-3.24q-3-21.63-7.65-42.68l-302.44-5.54,299.85-5.49a522.64,522.64,0,0,0-37.17-103.3l-174.91-3.2,171.75-3.14a526.56,526.56,0,0,0-37.59-63.5l-327.87-6,319.43-5.85a529.28,529.28,0,0,0-166-147.69L820,1777.5l299.77-5.49a524.43,524.43,0,0,0-238-56.73c-147.76,0-281.28,60.87-376.92,158.88L956,1882.43,489.19,1891a528.13,528.13,0,0,0-47.45,61.63l299.35,5.49-306.47,5.61q-12.27,19.68-22.83,40.48l457.94,8.39-466.13,8.54q-8,17.36-14.81,35.37L635.15,2061l-249.69,4.57q-5.9,16.61-10.72,33.7l389,7.13L371,2113.6a529.81,529.81,0,0,0-6.19,228.69L475.7,2223.81l26.83,25,99.3-85.77,70.4,79.11,7-14.42,63,52.58L868.2,2151.15l18.61,13.57,96.8-115.48,72.83,118c75.24,21.63,139.35,87.4,139.35,87.4l15.37-37.5,175.24,176.12a529.43,529.43,0,0,0,18-217Z" transform="translate(-204.84 -1715.28)"/><path class="a" d="M333.76,2602.93s16.95,12.12,45.72,13.69c0,0-13-9.7-16.56-19.25,0,0,19.26,17.68,47.52,20.82,0,0-32.37-15-47.4-55.6a62.07,62.07,0,0,0,16.19,13s-14-16.68-15.29-25.66c0,0,11.05,12.26,27.36,16.25,0,0-25.05-22.81-27.87-38.49,0,0,8.09,6.91,16.76,8.62,0,0-16.25-12.33-29.09-44a86.69,86.69,0,0,0,25.43,13.26s-23.31-22.31-32.37-42c0,0,6.94,4.82,12.53,6,0,0-17.34-17.11-19.27-31.43,0,0,9.57,5.7,17.79,6.27,0,0-20.94-17.83-30.7-60-9.76,42.2-30.69,60-30.69,60,8.22-.57,17.78-6.27,17.78-6.27-1.92,14.32-19.26,31.43-19.26,31.43,5.59-1.17,12.52-6,12.52-6-9.05,19.68-32.36,42-32.36,42a86.69,86.69,0,0,0,25.43-13.26c-12.85,31.65-29.1,44-29.1,44,8.67-1.71,16.77-8.62,16.77-8.62-2.83,15.68-27.88,38.49-27.88,38.49,16.32-4,27.36-16.25,27.36-16.25-1.28,9-15.28,25.66-15.28,25.66a61.89,61.89,0,0,0,16.18-13c-15,40.63-47.39,55.6-47.39,55.6,28.25-3.14,47.52-20.82,47.52-20.82-3.6,9.55-16.57,19.25-16.57,19.25,28.77-1.57,45.72-13.69,45.72-13.69.82-.49,1.59-1,2.32-1.47.6,9,.41,27-6.87,49l13.78.27h0l13.82-.28c-7.28-22.07-7.47-40-6.87-49C332.17,2602,332.94,2602.44,333.76,2602.93Z" transform="translate(-204.84 -1715.28)"/></svg>